HIERARCHY
ROOT Hips
{
	OFFSET 56.877701 -32.693596 43.373703
	CHANNELS 6 Xposition Yposition Zposition Zrotation Xrotation Yrotation
	JOINT Chest
	{
		OFFSET -0.779999 1.005800 5.403099
		CHANNELS 6 Xposition Yposition Zposition Zrotation Xrotation Yrotation
		JOINT Chest2
		{
			OFFSET 0.000000 0.000000 4.236801
			CHANNELS 6 Xposition Yposition Zposition Zrotation Xrotation Yrotation
			JOINT Neck
			{
				OFFSET 0.000000 0.000000 9.874401
				CHANNELS 6 Xposition Yposition Zposition Zrotation Xrotation Yrotation
				JOINT Head
				{
					OFFSET 0.000000 0.000002 2.173893
					CHANNELS 6 Xposition Yposition Zposition Zrotation Xrotation Yrotation
					End Site
					{
						OFFSET 0.000000 0.000000 6.508102
					}
				}
			}
			JOINT LeftCollar
			{
				OFFSET 2.681599 -0.377600 5.432499
				CHANNELS 6 Xposition Yposition Zposition Zrotation Xrotation Yrotation
				JOINT LeftShoulder
				{
					OFFSET 5.161499 0.000000 0.000000
					CHANNELS 6 Xposition Yposition Zposition Zrotation Xrotation Yrotation
					JOINT LeftElbow
					{
						OFFSET 0.000000 0.000000 -10.869099
						CHANNELS 6 Xposition Yposition Zposition Zrotation Xrotation Yrotation
						JOINT LeftWrist
						{
							OFFSET 0.000000 0.000000 -13.344799
							CHANNELS 6 Xposition Yposition Zposition Zrotation Xrotation Yrotation
							End Site
							{
								OFFSET 0.000000 0.000000 -2.173901
							}
						}
					}
				}
			}
			JOINT RightCollar
			{
				OFFSET -2.381901 -1.419600 6.136600
				CHANNELS 6 Xposition Yposition Zposition Zrotation Xrotation Yrotation
				JOINT RightShoulder
				{
					OFFSET -4.550499 0.000000 0.000000
					CHANNELS 6 Xposition Yposition Zposition Zrotation Xrotation Yrotation
					JOINT RightElbow
					{
						OFFSET 0.000000 0.000000 -11.106499
						CHANNELS 6 Xposition Yposition Zposition Zrotation Xrotation Yrotation
						JOINT RightWrist
						{
							OFFSET 0.000000 0.000000 -12.874298
							CHANNELS 6 Xposition Yposition Zposition Zrotation Xrotation Yrotation
							End Site
							{
								OFFSET 0.000000 0.000000 -2.173901
							}
						}
					}
				}
			}
		}
	}
	JOINT LeftHip
	{
		OFFSET 2.431900 0.469601 -2.489399
		CHANNELS 6 Xposition Yposition Zposition Zrotation Xrotation Yrotation
		JOINT LeftKnee
		{
			OFFSET 0.000000 -0.000004 -18.200201
			CHANNELS 6 Xposition Yposition Zposition Zrotation Xrotation Yrotation
			JOINT LeftAnkle
			{
				OFFSET 0.000000 0.000000 -16.279900
				CHANNELS 6 Xposition Yposition Zposition Zrotation Xrotation Yrotation
				End Site
				{
					OFFSET 0.000000 -8.394100 0.000000
				}
			}
		}
	}
	JOINT RightHip
	{
		OFFSET -1.987999 -0.073502 -2.713001
		CHANNELS 6 Xposition Yposition Zposition Zrotation Xrotation Yrotation
		JOINT RightKnee
		{
			OFFSET 0.000000 -0.000004 -19.547802
			CHANNELS 6 Xposition Yposition Zposition Zrotation Xrotation Yrotation
			JOINT RightAnkle
			{
				OFFSET 0.000000 0.000000 -14.881199
				CHANNELS 6 Xposition Yposition Zposition Zrotation Xrotation Yrotation
				End Site
				{
					OFFSET 0.000000 -7.922699 0.000000
				}
			}
		}
	}
}
MOTION
Frames: 4
Frame Time: 0.041667
-15.197609 -36.793095 42.553799 4673.399026 26.845579 -8.584828 -0.779997 1.005797 5.403098 12.935179 -16.702109 -11.371967 0.000002 0.000000 4.236805 -8.177300 -1.734475 -1.080610 -0.000006 -0.000002 9.874402 -36.299689 -16.297243 24.492114 -0.000008 0.000001 2.173896 -2.947361 0.203896 -6.976165 2.681597 -0.377596 5.432498 -0.976998 -0.300809 -16.819892 5.161507 0.000004 -0.000001 180.276751 -159.047088 82.667282 0.000005 -0.000005 -10.869102 151.063717 -62.453310 183.320775 -0.000010 -0.000005 -13.344807 -62.196399 10.408622 -61.610690 -2.381901 -1.419593 6.136591 9.696781 6.128640 11.370329 -4.550505 -0.000004 0.000008 -1254.982783 -525.000250 -431.820241 0.000007 -0.000009 -11.106486 589.343364 -54.779651 570.776123 -0.000007 -0.000017 -12.874294 -263.540609 3.282389 73.793248 2.431905 0.469595 -2.489403 -346.102378 -27.566712 18.105372 0.000001 -0.000006 -18.200199 381.962511 19.788294 9.654971 0.000006 0.000002 -16.279900 -19.952115 35.514634 -16.266051 -1.988000 -0.073498 -2.713004 -149.796758 -3.666999 -102.440045 -0.000008 -0.000003 -19.547798 -1770.771458 155.677387 38.569177 0.000002 0.000000 -14.881203 2006.844871 120.861864 -626.036343
-15.211708 -36.790291 42.562504 4673.253898 26.983277 -8.507523 -0.779995 1.005799 5.403091 13.101583 -16.831215 -11.448628 -0.000005 -0.000004 4.236792 -8.163342 -1.718387 -1.070176 0.000008 -0.000007 9.874408 -36.238836 -16.395674 24.622069 0.000000 0.000000 2.173891 -2.960489 0.246470 -7.022676 2.681603 -0.377600 5.432509 -1.124977 -0.170206 -16.975868 5.161504 0.000000 -0.000000 180.528102 -158.729485 82.970399 0.000000 -0.000010 -10.869091 150.241308 -62.427765 182.738392 0.000003 -0.000002 -13.344798 -62.521106 10.404515 -61.586436 -2.381887 -1.419603 6.136598 9.657296 6.007327 11.547414 -4.550507 0.000000 -0.000002 -1255.006607 -525.053143 -431.925044 0.000003 0.000000 -11.106493 590.030099 -54.676911 571.256914 -0.000007 0.000003 -12.874307 -263.194127 3.454912 74.008160 2.431903 0.469602 -2.489397 -345.910668 -27.757086 18.137870 0.000002 -0.000010 -18.200197 381.793313 19.892161 9.606224 0.000007 -0.000002 -16.279896 -19.819771 35.446360 -16.319660 -1.987995 -0.073495 -2.713006 -149.653420 -3.596194 -102.449641 -0.000003 -0.000001 -19.547802 -1770.803587 155.685310 38.597976 0.000001 0.000002 -14.881195 2006.635047 121.146191 -626.244090
-15.225899 -36.787491 42.571999 4673.131501 27.061361 -8.447160 -0.779995 1.005798 5.403097 13.238295 -16.896874 -11.529626 0.000005 -0.000002 4.236801 -8.156719 -1.708452 -1.061172 0.000008 -0.000002 9.874409 -36.185219 -16.476491 24.760858 0.000000 0.000009 2.173886 -2.951671 0.280916 -7.061743 2.681599 -0.377601 5.432505 -1.250718 -0.113782 -16.919543 5.161496 0.000003 0.000006 180.683475 -158.664065 82.956916 0.000001 -0.000003 -10.869093 150.497030 -62.309473 182.937710 -0.000004 0.000003 -13.344801 -62.363664 10.441908 -61.530360 -2.381898 -1.419600 6.136598 9.621771 5.883473 11.688237 -4.550504 -0.000001 0.000001 -1255.025076 -525.154175 -432.020858 -0.000001 -0.000006 -11.106483 590.372209 -54.671949 571.482037 -0.000003 -0.000004 -12.874298 -262.920154 3.484805 74.348030 2.431898 0.469603 -2.489396 -345.764776 -27.894387 18.157862 -0.000003 -0.000007 -18.200201 381.633022 19.998423 9.558578 0.000003 0.000005 -16.279900 -19.661521 35.380281 -16.496112 -1.987996 -0.073501 -2.713001 -149.527936 -3.561734 -102.449566 -0.000007 -0.000008 -19.547800 -1770.816919 155.690952 38.609447 -0.000001 -0.000001 -14.881187 2006.451889 121.352340 -626.324249
-15.239197 -36.784492 42.581104 4673.030523 27.093004 -8.397876 -0.779995 1.005800 5.403098 13.343222 -16.907491 -11.587453 -0.000002 0.000003 4.236793 -8.196177 -1.715530 -1.063567 0.000000 -0.000003 9.874404 -36.118310 -16.499978 24.845460 0.000000 0.000002 2.173891 -2.980815 0.323152 -7.078422 2.681598 -0.377596 5.432501 -1.275265 0.018205 -17.205137 5.161498 -0.000004 0.000002 180.919239 -158.417973 83.253271 -0.000008 -0.000010 -10.869099 149.381797 -62.307199 182.102091 0.000000 0.000003 -13.344793 -62.770600 10.549015 -61.770448 -2.381908 -1.419601 6.136599 9.591574 5.772212 11.771283 -4.550503 0.000003 0.000004 -1254.979286 -525.252366 -432.084597 0.000010 -0.000016 -11.106490 590.715631 -54.701032 571.725902 0.000013 -0.000006 -12.874303 -262.743799 3.454506 74.615063 2.431902 0.469599 -2.489393 -345.638390 -27.987112 18.178366 -0.000000 -0.000009 -18.200199 381.487703 20.100133 9.508963 -0.000001 -0.000001 -16.279898 -19.502919 35.339344 -16.677459 -1.987996 -0.073500 -2.712995 -149.420428 -3.561818 -102.437900 -0.000007 -0.000009 -19.547796 -1770.836590 155.656487 38.619993 0.000001 -0.000004 -14.881197 2006.365337 121.348214 -626.106338
